<mxfile host="app.diagrams.net" modified="2022-01-03T11:39:02.231Z" agent="5.0 (Windows NT 10.0; Win64; x64) AppleWebKit/537.36 (KHTML, like Gecko) Chrome/96.0.4664.110 Safari/537.36" etag="dckyuSMEVj85xUivch8i" version="16.1.2" type="github">
  <diagram id="4zko-b7rBUh9qEplfsoL" name="Page-1">
    <mxGraphModel dx="1038" dy="528" grid="1" gridSize="10" guides="1" tooltips="1" connect="1" arrows="1" fold="1" page="1" pageScale="1" pageWidth="827" pageHeight="1169" math="0" shadow="0">
      <root>
        <mxCell id="0" />
        <mxCell id="1" parent="0" />
        <mxCell id="fBx816WQmak9tDgQq-sm-1" value="Deployment Typo3 Agentur in BC" style="swimlane;childLayout=stackLayout;resizeParent=1;resizeParentMax=0;startSize=20;" vertex="1" parent="1">
          <mxGeometry x="80" y="40" width="620" height="480" as="geometry" />
        </mxCell>
        <mxCell id="fBx816WQmak9tDgQq-sm-2" value="Agentur / Kunde Code Handling" style="swimlane;startSize=20;" vertex="1" parent="fBx816WQmak9tDgQq-sm-1">
          <mxGeometry y="20" width="200" height="460" as="geometry" />
        </mxCell>
        <mxCell id="fBx816WQmak9tDgQq-sm-8" value="" style="group" vertex="1" connectable="0" parent="fBx816WQmak9tDgQq-sm-2">
          <mxGeometry x="40" y="40" width="120" height="130" as="geometry" />
        </mxCell>
        <mxCell id="fBx816WQmak9tDgQq-sm-5" value="" style="shape=image;html=1;verticalAlign=top;verticalLabelPosition=bottom;labelBackgroundColor=#ffffff;imageAspect=0;aspect=fixed;image=https://cdn4.iconfinder.com/data/icons/socialcones/508/Gitlab-128.png" vertex="1" parent="fBx816WQmak9tDgQq-sm-8">
          <mxGeometry x="20" width="80" height="80" as="geometry" />
        </mxCell>
        <mxCell id="fBx816WQmak9tDgQq-sm-6" value="Repository Agentur&lt;br&gt;Git-Hub, Git-Lab, Bitbucket" style="whiteSpace=wrap;html=1;verticalAlign=top;labelBackgroundColor=#ffffff;" vertex="1" parent="fBx816WQmak9tDgQq-sm-8">
          <mxGeometry y="80" width="120" height="50" as="geometry" />
        </mxCell>
        <mxCell id="fBx816WQmak9tDgQq-sm-7" value="" style="edgeStyle=orthogonalEdgeStyle;rounded=0;orthogonalLoop=1;jettySize=auto;html=1;" edge="1" parent="fBx816WQmak9tDgQq-sm-8" source="fBx816WQmak9tDgQq-sm-5" target="fBx816WQmak9tDgQq-sm-6">
          <mxGeometry relative="1" as="geometry" />
        </mxCell>
        <mxCell id="fBx816WQmak9tDgQq-sm-11" value="" style="edgeStyle=orthogonalEdgeStyle;rounded=0;orthogonalLoop=1;jettySize=auto;html=1;" edge="1" parent="fBx816WQmak9tDgQq-sm-2" source="fBx816WQmak9tDgQq-sm-9" target="fBx816WQmak9tDgQq-sm-10">
          <mxGeometry relative="1" as="geometry" />
        </mxCell>
        <mxCell id="fBx816WQmak9tDgQq-sm-9" value="" style="shape=image;verticalLabelPosition=bottom;labelBackgroundColor=default;verticalAlign=top;aspect=fixed;imageAspect=0;image=data:image/svg+xml,PHN2ZyB4bWxucz0iaHR0cDovL3d3dy53My5vcmcvMjAwMC9zdmciIHhtbG5zOnhsaW5rPSJodHRwOi8vd3d3LnczLm9yZy8xOTk5L3hsaW5rIiB2ZXJzaW9uPSIxLjEiIGlkPSJFYmVuZV8xIiB4PSIwcHgiIHk9IjBweCIgdmlld0JveD0iMCAwIDMwMy4wNSA4NC4xNyIgc3R5bGU9ImVuYWJsZS1iYWNrZ3JvdW5kOm5ldyAwIDAgMzAzLjA1IDg0LjE3OyIgeG1sOnNwYWNlPSJwcmVzZXJ2ZSI+JiN4YTs8c3R5bGUgdHlwZT0idGV4dC9jc3MiPiYjeGE7CS5zdDB7ZmlsbDojZmY4NzAwO30mI3hhOzwvc3R5bGU+JiN4YTs8Zz4mI3hhOwk8Zz4mI3hhOwkJPHBvbHlnb24gcG9pbnRzPSI5OS45NCwyOC4zNyAxMTMuNTcsMjguMzcgMTEzLjU3LDgzLjU2IDEyMS4yNiw4My41NiAxMjEuMjYsMjguMzcgMTM0Ljg4LDI4LjM3IDEzNC44OCwyMS42NSA5OS45NCwyMS42NSAmIzk7JiM5OyIvPiYjeGE7CQk8cG9seWdvbiBwb2ludHM9IjE1OC45LDQ2LjY3IDE0Ny4yMywyMS42NSAxMzguNzQsMjEuNjUgMTU0LjU3LDU0LjgxIDE1NC41Nyw4My41NiAxNjIuNTMsODMuNTYgMTYyLjUzLDU0LjgxIDE3OC42MywyMS42NSYjMTA7JiM5OyYjOTsmIzk7MTcwLjU3LDIxLjY1ICYjOTsmIzk7Ii8+JiN4YTsJCTxwYXRoIGQ9Ik0yNDcuNDMsMjEuMDNjLTE0LjU5LDAtMTguNDgsMTAuMDgtMTguNDgsMzAuODdjMCwyMS42NiwzLjg5LDMyLjI3LDE4LjQ4LDMyLjI3YzE0LjU5LDAsMTguNDgtMTAuNjEsMTguNDgtMzIuMjcmIzEwOyYjOTsmIzk7JiM5O0MyNjUuOTEsMzEuMTEsMjYyLjAyLDIxLjAzLDI0Ny40MywyMS4wM3ogTTI0Ny40Myw3Ny43MmMtNy45NSwwLTEwLjYxLTYuMzgtMTAuNjEtMjUuMzhjMC0xOS40NiwyLjY2LTI0Ljg2LDEwLjYxLTI0Ljg2JiMxMDsmIzk7JiM5OyYjOTtzMTAuNjEsNS40LDEwLjYxLDI0Ljg2QzI1OC4wNCw3MS4zNSwyNTUuMzksNzcuNzIsMjQ3LjQzLDc3LjcyeiIvPiYjeGE7CQk8cGF0aCBkPSJNMjk1LjE4LDUxLjExYzQuNjktMS42OSw2LjgyLTYuOTksNi44Mi0xM2MwLTEzLjE4LTUuMjMtMTcuMDgtMTQuMzMtMTcuMDhjLTQuNSwwLTkuNzMsMS4zMy0xMC43LDEuNTF2Ni40NSYjMTA7JiM5OyYjOTsmIzk7YzIuNTYtMC41Myw2Ljk5LTEuNTEsMTAuODgtMS41MWM0LjQyLDAsNi42MiwyLjgzLDYuNjIsOS44MmMwLDMuNTMtMC4zNCwxMC44Ny03LjUyLDEwLjg3aC02LjM2djYuNDZoNy4yNiYjMTA7JiM5OyYjOTsmIzk7YzYuMjgsMCw3LjYsNC4yNSw3LjYsMTIuMjljMCw2LjgyLTIuOTMsMTAuNjQtNy40MywxMC42NGMtMy45LDAtOS4zNy0wLjkxLTExLjUtMS4zNXY2LjQ0YzAuODEsMC4xOSw3LjI2LDEuNTEsMTEuNTksMS41MSYjMTA7JiM5OyYjOTsmIzk7YzkuODIsMCwxNC45NC00Ljk0LDE0Ljk0LTE4LjEzQzMwMy4wNSw1Ny4zOCwzMDAuNTgsNTEuNDYsMjk1LjE4LDUxLjExeiIvPiYjeGE7CQk8cGF0aCBkPSJNMjAyLjMzLDIxLjAzYy03LjM0LDAtMTQuOTYsMC42My0xNC45NiwwLjYzdjYxLjkxaDcuN1Y2MC4yMWg3LjQzYzEyLjU2LDAsMTcuMTYtNi41NSwxNy4xNi0xOS45OSYjMTA7JiM5OyYjOTsmIzk7QzIxOS42NiwyOS4zNCwyMTUuNzcsMjEuMDMsMjAyLjMzLDIxLjAzeiBNMjAzLjM4LDUzLjc1aC04LjMxVjI3LjkzYzAsMCwzLjQ1LTAuNTMsOC4zMS0wLjUzYzYuMjgsMCw4LjQxLDQuNTksOC40MSwxMy40NCYjMTA7JiM5OyYjOTsmIzk7QzIxMS43OSw1MC40OCwyMDguMzQsNTMuNzUsMjAzLjM4LDUzLjc1eiIvPiYjeGE7CTwvZz4mI3hhOwk8Zz4mI3hhOwkJPHBhdGggY2xhc3M9InN0MCIgZD0iTTMyLjk0LDguNzJjMC00LjU4LDEuMDgtNi4xLDIuNjEtNy40MkMyMi40NiwyLjgzLDYuNzYsNy42MywxLjc0LDEzLjc0QzAuNjYsMTUuMjcsMCwxNy42NiwwLDIwLjcyJiMxMDsmIzk7JiM5OyYjOTtjMCwxOS40MSwyMC43Miw2My40NiwzNS4zMyw2My40NmM2Ljc2LDAsMTguMTYtMTEuMTEsMjcuNTQtMjYuMTdjLTEuMjUsMC4zNy0yLjI0LDAuNTEtMy41NSwwLjUxJiMxMDsmIzk7JiM5OyYjOTtDNDguNjMsNTguNTEsMzIuOTQsMjEuMTUsMzIuOTQsOC43MnoiLz4mI3hhOwkJPHBhdGggY2xhc3M9InN0MCIgZD0iTTU2LjA1LDBjLTUuNjcsMC03Ljg1LDEuMDktNy44NSw2Ljc2YzAsMTIuNDMsMTEuMTIsMzcuMywyMC4wNywzNy4zYzUuMDEsMCwxNC44My0xOC43NiwxNC44My0zNC4yNSYjMTA7JiM5OyYjOTsmIzk7QzgzLjEsMi4xOCw2OS41NywwLDU2LjA1LDB6Ii8+JiN4YTsJPC9nPiYjeGE7PC9nPiYjeGE7PC9zdmc+;" vertex="1" parent="fBx816WQmak9tDgQq-sm-2">
          <mxGeometry x="60" y="210" width="72.14" height="20" as="geometry" />
        </mxCell>
        <mxCell id="fBx816WQmak9tDgQq-sm-10" value="" style="ellipse;shape=cloud;whiteSpace=wrap;html=1;verticalAlign=top;labelBackgroundColor=default;" vertex="1" parent="fBx816WQmak9tDgQq-sm-2">
          <mxGeometry x="-3.93" y="250" width="200" height="190" as="geometry" />
        </mxCell>
        <mxCell id="fBx816WQmak9tDgQq-sm-12" value="" style="sketch=0;aspect=fixed;html=1;points=[];align=center;image;fontSize=12;image=img/lib/mscae/Docker.svg;" vertex="1" parent="fBx816WQmak9tDgQq-sm-2">
          <mxGeometry x="110" y="300" width="36.59" height="30" as="geometry" />
        </mxCell>
        <mxCell id="fBx816WQmak9tDgQq-sm-13" value="Files" style="aspect=fixed;html=1;points=[];align=center;image;fontSize=12;image=img/lib/azure2/general/Files.svg;" vertex="1" parent="fBx816WQmak9tDgQq-sm-2">
          <mxGeometry x="132.14" y="350" width="27.43" height="30" as="geometry" />
        </mxCell>
        <mxCell id="fBx816WQmak9tDgQq-sm-16" value="" style="shape=image;html=1;verticalAlign=top;verticalLabelPosition=bottom;labelBackgroundColor=#ffffff;imageAspect=0;aspect=fixed;image=https://cdn2.iconfinder.com/data/icons/crystalproject/128x128/mimetypes/php.png" vertex="1" parent="fBx816WQmak9tDgQq-sm-2">
          <mxGeometry x="50" y="296" width="38" height="38" as="geometry" />
        </mxCell>
        <mxCell id="fBx816WQmak9tDgQq-sm-17" value="443" style="shape=image;verticalLabelPosition=bottom;labelBackgroundColor=#ffffff;verticalAlign=top;aspect=fixed;imageAspect=0;image=data:image/jpeg,/9j/4AAQSkZJRgABAQEAYABgAAD/4QAiRXhpZgAATU0AKgAAAAgAAQESAAMAAAABAAEAAAAAAAD/2wBDAAIBAQIBAQICAgICAgICAwUDAwMDAwYEBAMFBwYHBwcGBwcICQsJCAgKCAcHCg0KCgsMDAwMBwkODw0MDgsMDAz/2wBDAQICAgMDAwYDAwYMCAcIDAwMDAwMDAwMDAwMDAwMDAwMDAwMDAwMDAwMDAwMDAwMDAwMDAwMDAwMDAwMDAwMDAz/wAARCABhAPADASIAAhEBAxEB/8QAHwAAAQUBAQEBAQEAAAAAAAAAAAECAwQFBgcICQoL/8QAtRAAAgEDAwIEAwUFBAQAAAF9AQIDAAQRBRIhMUEGE1FhByJxFDKBkaEII0KxwRVS0fAkM2JyggkKFhcYGRolJicoKSo0NTY3ODk6Q0RFRkdISUpTVFVWV1hZWmNkZWZnaGlqc3R1dnd4eXqDhIWGh4iJipKTlJWWl5iZmqKjpKWmp6ipqrKztLW2t7i5usLDxMXGx8jJytLT1NXW19jZ2uHi4+Tl5ufo6erx8vP09fb3+Pn6/8QAHwEAAwEBAQEBAQEBAQAAAAAAAAECAwQFBgcICQoL/8QAtREAAgECBAQDBAcFBAQAAQJ3AAECAxEEBSExBhJBUQdhcRMiMoEIFEKRobHBCSMzUvAVYnLRChYkNOEl8RcYGRomJygpKjU2Nzg5OkNERUZHSElKU1RVVldYWVpjZGVmZ2hpanN0dXZ3eHl6goOEhYaHiImKkpOUlZaXmJmaoqOkpaanqKmqsrO0tba3uLm6wsPExcbHyMnK0tPU1dbX2Nna4uPk5ebn6Onq8vP09fb3+Pn6/9oADAMBAAIRAxEAPwD9/KKKKACiignFABRmvkn9t/8A4LA/Df8AZFkutD0x18deOIQVOladcKLawcNtIu7kbliYYb92oeQELuVAwevyd/aC/wCCh/xe/aR+Itr4k1rxjqmk3GmOJNNs9CuJdOs9LYZ+aFEfdv5P7x2eQg43bQAPGx2dUKD5I+9Ly6er/Q/OOKPE7KMmn7BP2tW+sYtad7y2T8tX3tuf0MZor8r/ANif/gvrcaZ9l8P/ABvs2uoFCxx+KdLtf3q9Buu7ZPvfxEvAoPAAhYktX6b+AfiHoXxU8K2uueGtY03XtGvl3W97YXKXEEozg4dSRkHgjqCMHmu3B5hRxMb0nr26r+vuPpOHeK8szuj7XAVLtbxeko+q/VXXZmzRRRXYfRhRRRQAUUUUAFFFFABRRRQAUUUUAFFFFABRRRQAUUUUAFFFFABRRRQAUUV8P/8ABXj/AIKZ+JP2LH0fwj4L0u0/4STxNp8t7/bN5iWPS4g/lr5UHSSUkOcyfIu1cpJuIXnxWKhh6bq1NkeTnedYXKcHPHYx2hHsru7dkku7fy76H0p+0z+178Pv2RPB7ax468RWel+ZGz2dgp83UNSK4BWCAfPJyygtgIm4F2Vckfkr+29/wWm+IP7TQutB8G/avh34LmUxSR2s+dV1NdwOZrhcGJSFAMUJHDOrPKrYHyX8RfiT4g+LvjG78QeKda1TxBrd8R517f3DTTOB0XLfdRc4VBhVHAAHFfRf7IP/AASH+KX7Yfw2Xxhpdx4d8OeHbpnSwuNYuJFk1HYzIzRxxRuRGHVl3PtyR8oYc18hic0xWNl7Kgml2W7Xm/6XTU/nPOOPs/4nrSy7I6coQs7qPxtd5S6LyVt7Ns+WI41jRVVVVVGAAMACnV69+1z+w38RP2JvE9rp/jfTbYWepFhp+q6fP9osL/aAWCOQrqy5GUkRG7gFea8hrxJ05QlySVmuh+Q47A4nB15YbFwcJx3TVn/XZ9Q616Z+zJ+2B8Q/2P8Axa2reBPEE+mrcOjXunyjz9P1MKQds8B4bIG3eu2RVZgrpkmvMycCvsH4Uf8ABEL40fFv4HWfjW2fwtpr6rZLqOm6NfXzx313Cy748lY2iieRSpVXcEbgJPLO4Lth6dac70E7rXToepw7l+b4nEe0yaM3Upq94aNfPz7dex97/sO/8Fnvh7+1E9roPiprf4e+NZTHFHbX1yP7P1SRjtAtrhsAOW2gRSbXJkVUMuGI+zM1/ML4g8P3nhjXL/StTtZbPUNNuJLO7tplw8EsbFJI2HqrKQR6ivrb9g//AIK//Eb9l/UtL8Oa9cXHjrwO0sNqtlfzlr3SotwT/RZzltqqRiGQsmEVU8oEmvoMDxA17mK+9fqv8vuP2vhLxjfMsFn8bSvb2iXX+/Hp6xX/AG71P3Eooor6w/oEKKKKACiiigAooooAKKKKACiiigAooooAKKKKACiiigAooooAK/IX/g4r/wCTlPAX/Ysv/wClUlfr1X5C/wDBxX/ycp4C/wCxZf8A9KpK8XiD/c36r8z8z8XP+SZrf4of+lI/PXrX9CH/AATKOf2AfhL/ANi7b/yNfz31/Qh/wTK/5MA+Ev8A2Ltv/I143Df+8S/w/qj8w8C/+Rlif+va/wDSkdl+1D+zT4Z/a2+C+reCPFVu8mn6kqvFcQ4Fxp9whzHcQsQdrofwZSysCrMD/Pz+01+zf4m/ZM+M+reB/Fduseo6aRJDcRqfs+o27Z8q5hJ6xuAfdWVkOGRgP2u0j/goBYeGv+CiPib4H+KpbaxW8hsrrwxfuRGks0ltE0li5/vs2542P3izJ18tWm/4KY/sBab+3R8FjDa+TY+OfDkctx4ev3PyF22l7WXn/VTbFXdyY2CuAwDI/pZlg4Y2Dq0Pjg2n526fqv8Agn3/AB5wtheJ8JPFZc08TQcoeb5XrB+fWL8+zuvwLvP+PWT/AHT/ACNf04fD1QPAOh8D/kH2/b/pmtfzOeMvDOpeCta1TR9YsbnTdW0qaW0vLS4TZLbTISrow7EEEV/TH8Pv+RB0P/sHwf8Aota4uGf4lT0X6nyvgVCUKmOhNWa9mmu3xn87/wC2qNv7Z3xg/wCx51z/ANOE9efaB/yH7D/r5i/9DFeg/tq/8nnfGD/seNc/9OE9efaB/wAh+w/6+Yv/AEMV89X/AIkvVn4hmn/I0q/9fJf+lM/oK/4KDftk2/7DP7Ol340fSH1y+lvItM06y83yY5biUOwMj4JVFVHY4BJ2heM7h8z/APBN7/gtn/w0/wDFGPwL8StL0Hwz4g1hiuh3+nNJHY38vOLR1ld2jmYY2HeVkbK4Viivt/8ABwt/yYzpH/Y4WX/pPd1+RPh/4MeJtR+DWqfEbS4Z5NE8L6tb6fqNzbFxLpcsw3W8zEfdRnGwOCNr7B1dc83FfFGZYDO408N71OMVJxstVrzO++iW/S19rn9D8acZZtlnEMaWEfNShBSlCy1Wrk299Et+lr2te/8ATEDmvgv/AIKn/wDBWrxR+wz8cvDvgzwt4Y0DV2udKi1vUrnVXmIkhknniWCERsux/wBwxMjbx86jZwc9b/wSJ/4KPJ+2b8Lm8N+KLuBfiX4Utwb/AKRnWrUEIt8iDjdkqkoXhXKsAqyqo+Hv+DhwZ/bq0X/sSLH/ANLdQr2eKOI5f2CsyyypbmcbPS6u9V1s1sz6HjDiuT4aWa5RUtzONnpda6p3vZq1mfsB8Hfidb/GH4NeFfGdvA9jZ+KdFtNaihmcFreO4gSYKxHGVD4J6cV+Zvxc/wCDirXNF+KGvWfg/wAFeG9Y8LWl7JBpd/eXM8c19Ah2iYqMAB8FlGAQrKDzmuv/AG0f2w/+Gdv+CPXwd8I6Rdxx+KviR4F0fTECSYltNP8A7Og+1TgdfmUiEHjmYsDlMV51/wAEKf8Agn1ofxf07xB8T/iB4b0vxB4fBfRdC03V9PW5tbqQFGnu9kqlHCcRIwyA/njhkFcmcZ1mOLxuHyrK6nLUcVKpKydrq/8Awfmjz884gzXH4/C5Lk1XkqOCnUnZNK8U7PR+vm3FFMf8HHfxAz/yTnwb9Pttz/jX2p/wS/8A+Ckdv+354L15NS0/T/D/AIw8N3C/atNtpXkjltJP9VcRlhkjcHRgCSpRScCRQfRNc/4J4/AnXtEvLGT4PfDW3jvoHt3ltfDdpbzxq6lS0ciRh43AOQ6kMpwQQQDX5z/szf8ABOn9pX9gr9tKHxR4P8HSeLvCul30unT3Sa1p9p/wkGkSMA26KS5V0k2hJArcLNEn3lHLguIssxlGeKqPEUpNqSjHWPnZK+m/ya6oqmuKsnx9CpjKrxVCbcZqELuPaTSV9N+2jW7R9zf8FUv21da/YW/ZrtfFHh3TdN1LXtY1q30azGoI8lrbl45pnkdEdGb93A6gBhhnUnIUqef+AP8AwUouvG//AATN1b45eItBtf7Y8N214l5p1g7RW17dQyeXGI2Yu0cchaLJO8pub7+0Zqf8Fo/2XfHf7W37NXhrw98P9D/t7WNP8Uw6lPAb23tPLt1tLuMvundFPzyxjAJPzZxgEjxjTv2ePGH7MH/BCr4meFfHWj/2Hr0bXV01r9rgucRSXUBRt8LunODxnI7gV6GOx2Z0s1ruPN7GNFtO3u86V97Wv5XPUzLMM4oZ1iXDmWHhQlKL5fc50rrW1m/K+x61/wAEqv8AgqNq37fGu+LtD8ReGdN0HVPD8MV/bTadNI8FzBI7IUZXyVdCE+YMQ+88Jt+b7OJxX5C/8G4XHx8+I/8A2L9v/wClFfQn/BZr/gph/wAM3+EJPhr4H1Pb8QPEVsft95ay4l8N2jgYbcPu3Eyk7MENGuZPlJiLRkHE3Jw9HM8yndrm10u2m0kkravb8X1ZHDPFzp8LxzfNqnM1zK+l5NSaSSVk29vxfVnP/t1/8F2ovgD8bLrwZ8PfDukeLP8AhH5/s+s6lfXTrbtOp/eW9uI+SU+60jEgOGXYduT2f7RH/BX6TwX/AME9PBPxk8I+FY31bx7qD6TbWWrO0lrpVxEbhbgyGMoZlD20ioA0ZdWDnbhkr8hPHf7PviP4W/CXwP4u1mzGn6Z8QPtr6LDICs01va/Zwbgrj5Y5DPiM9WEZbG1kZv1j/wCCev7Lfhv9sX/gi94T8D+KIm+y3txq01pdxf6/TbpdUvfKuIv9pSTweGVmU5ViK+ZyPiDPMzxmKw3N7OTpuUE0vdbceXW19Yy3fe58jw5xRxFnGOxmE5/ZylSc6cWl7jbhy62vrGW77p2O6/4Jof8ABWLQ/wBuJJPDOvWdp4X+IlnD5xsYpS1pq8Sj55bUsdwZerQsSyqQwZwHKfWfiPxJp/g/w/e6tq19Z6ZpemwPdXd5dzLDBaxICzySOxCqqqCSxIAAr+dj9oj9nj4gf8E+f2iI9N1CS80vWNFuhf6FrlmGiivkRgY7m3c56cblySjZVs9/Qv20f+CrnxE/bR+Evhvwdqy2+h6Tp8CPriWD7V8SXiNlJpRgbI1wrCAEoJMuS22IR65f4iTwmFqYfNoP6xT0Stbmfn0Vur2a1WptlnipUwODq4XOoP61S0Stbnfn0TW7ezWqu9H9T/FT/g4tm0/48ww+D/BdnqXw2sbkQ3Nzfeamr6tFwGmt0DBIOclEkV2cBd3lMxVP1LRtyA+ozyMV+RH/AARu/wCCU83xO1XSfjB8SLCa38M2MiXnhrR7iMq2syKQ0d7KD/y7KeUTH744Y/ugBN+vAGBX1XBdbNsRh54zNHpUacI2tZf5PSyeul+p9p4f4jO8VhamOziWlVpwja3LHX7k9LJ3dlfrdlFFFfZn3wV+Qv8AwcV/8nKeAv8AsWX/APSqSv16r8hf+Div/k5TwF/2LL/+lUleLxB/ub9V+Z+Z+Ln/ACTNb/FD/wBKR+etf0If8Eyv+TAPhL/2Ltv/ACNfz31/Qh/wTK/5MA+Ev/Yu2/8AI143Df8AvEv8P6o/MPAv/kZYn/r2v/SkflT/AMFtbqaw/wCCkHiW4t5ZYLi3stMkilicpJG620ZVlYcqwIBBHIIr9Bv+CSP/AAUZi/bH+GJ8MeJriNfiR4StEF6WYBtbtV2oL5V4+bcVWVV4V2VhtWRVH56/8Fv/APlIr4q/7B+m/wDpLHXzX8Ifi1r/AMCPidovjDwvfNp2veH7kXVrMM7c8hkcAjdG6Fkdc4ZHYd6wjjpYXHVJrZyd13V3+K6Hm0+Mq3D/ABdjKurpTqyU491zPVea3XfVdT9Wf+C13/BNg/GzwhffFrwPp6v4y0OzLa5Y28f7zXbONQPNUcbriBBwPvSRrsGWSND94fDqRZfh/oTKQytp1uQR0I8ta80/Yd/bJ8Pftt/A2x8VaQy2upQhbbW9KZg0mlXgUF0/2o2+9G/G5CMhWDKvsaKI1CqAqqMAAdK+rwtCjzyxVHaaX66/jr/nc/onJcty/wCsVM4y9q2JUW7bNq9perv73mtdbn85H7a3/J53xg/7HjXP/ThPXn2gf8h+w/6+Yv8A0MV6D+2oc/tnfGD/ALHnXP8A04T159oH/IfsP+vmL/0MV+f1/wCJL1Z/F2af8jSr/wBfJf8ApTP2N/4OFv8AkxnSP+xwsv8A0nu68r/4N5PCWm+Pfgb8ZtE1mxttS0nV7y0s720uEDxXMMlvMroy91Kkgj3r3L/gu78M9e+Jf7DO3w/pN9rEuh+ILPU7uG0iM0sdusc8TSBFyzBWlQnAOFyxwFJHnv8Awbv/AAv8ReCPgp8QNU1rRdS0mz1zWLdLBr23eBrvyYmEjIrgFkDOF3DgsrjOVYDXE4ecuMqc3F8vs3rbTaS/4B/TGLwtSXH1Kbg3H2T1tpblkvTfT8D4s/bA/Zs8bf8ABJH9sLS9f8H6heR6P9pOo+FNYkBYTxjHm2VyAQGZQ5jkXIEsbhvl3lVwv+Co/wC1non7avxl8G+OtFiezkuPBNnZ6pYOdzaZfR3l8ZYN2BvUB0ZXAG5HQkKSVH7aftdfsseG/wBsb4Hap4J8TRsLe8xPZ3kahp9MukB8q4iz/Eu4gjgMrOp4Y1+Bvx4/Yo+Jv7O/xTvvCOu+E9autQtZNlvcabYz3VpqiH7ktvIq/vFbsOGByrKrBlHyPGWR4vK4ToYNOWGrNO2r5JLp5X6d1purnxHHnDuNyaFTD4FOWDryUrWb5Jrp5X6d1pvG59Xf8FLf2ULzXf2B/wBnf4yab9ruI9F8AaB4f1qAZeO1t2tEe3uMZ+UedK0bHHJmi6YOfU/2H/jL4w/ar/4JE+Lfhj8LriPQfiv4BSHT7VbC7GnzXlm90s4ljl+RYpZohcwli2TIhdmTzAV+2/g98ALfX/2C/B/wz8b6bujbwNYeHtasyQWjdbGOGVVbnDqwO1hyGUEcgV+MvhKx+NP/AAS2/a28RxeF9NvLzWtDE+jzXB0ia60/VrSTZJG+F/hYCGUAMCrKAScMp9vNsLLKMbTzDll7KvT9nU5fii+VK67PRNeafc+gzrByyPMKWZ8svY4mn7Ory/FF8qV12eia80+50w/4J6ftmb/+QB8Qt2f+hwt+v/gXXjvwduPi18a/jlovw/0Hxl4tm1/XNS/s2PytenniiIJ82UvHIVaKNEkkZ0JGyMsCRX0L8Qf+Ctv7UvxG8Cax4fuNCi0231q0ksprnT/C91DdwpIpVjE5ZtjbSQGAyucjBAI96/4N/wD9iO58Kwa98X/FGlz2d9cb9D8O295bmOSGIEfaroKwyCzBYVYYIEc45VxXzmFynC4/MaOFyydbl1c3N2tFW2slq9r92j5TB5Hg8zzShgsonXcHd1JVHa0VbayWr2v3aOr/AOC2GnX37M//AAT9+Gmh+FfEHiOxOjeJrLTP7QTUZY768RdOvdzTSoVZ2dlDsTwW5x0rgfgx4t1bxt/wb+fEq+1rVdS1i+ae8Q3N9dSXMxUXVvgb3JOB2GeK9l/4OBvh/rXjn9ivRrjR9Nu9SXQPFdrqF8LeNpHggNtdweYQBnaJJowT23elcB+yv+zr4y13/ghB4u8MxaFqEfiDxHBqOpabp0sLJdXcYnV0Cxkbt0ohbywR8+5COGBr7LH0K/8AbuJpU0+T6u0lrbayt0v0Pvcyw+I/1kxdGlGXJ9VkopXtskrdL9D4v/4Ju/tt2X7C9p8UPEggi1DxJqmiW+n6BYyq3lXFyZ8l5Co4jjUF2GQWwEBBbI7D/gmf+w5r3/BSH9ofU/H3j+41DUvB+mal9t8QahN9/wAQXxKyfYg3ZSCpk2Y2RFVXYXRl8r/ZL/4J0/Ev9qz4u2fh2Dw5rnh3So5h/bGsanp01vb6XCD8/wB9RvmIBCRDktjO1Qzr+93wM+Cnh79nX4UaH4L8K2K2Gh6DbC3t04LyHq8shAG6R2LO7Y+ZmJ7187wZkGKzKNL+0E1h6LbjFprnk3e7XVLr06Ldny/APDOMzaNL+0k1hcO24xaa55t3bd90tm9tOVbyPzK/4OP9Lt9D1X4I2VnbwWlnZ2GsQwQQxiOOGNTp4VFUcKoAAAHAAr6r/wCCJt5Fp3/BMLwHcTyRwwwy6w8kjsFVFGq3hJJPAAAzk9K8B/4OKfg94p8dR/CrXND8P6xrWmaSNUtL6awtHuPsckxs2i8wICVD+VIAx4ymM5IB4f44eDfip8EP+CEHw78LwaHr2kzaprNz/wAJPaxQP9rttNuLq+uYkmRRujjkLW+8NgjcsbD52WvadapgOJMfj3TbjGkmrLfSnZJ/J/c+x9B9YqZbxZmWZSpSlCFFNWTs9KVknt0fok+x5j/wWN/4KN6P+2J42sfCPg+10+68H+ELp5YtbMCtcarcMoR2hdl3R246YB/elVc5CpXxvqGgap4TGlXl5p91ZR6nbrqOnveWf7q9g8x0EqLIuyWIvG65wyEowOeRX2z/AMEq/wDgkpqn7THiiDxr8RtLvtJ+HemShoLK5RrefxJMpB2BWG4WowQ78bz8ifxsn6a/ttfsDeDf21PgdH4S1K3h0W+0WMt4c1S0t1EmhyhNqqqjAa3YBVeHIVlVcFXSN0+dhwpmuf06mcYl8tSWsI2tdL8lbSLe+701Pl4cF51xNSrZ7ipclSWtOLVrpbL+6raRb1b1emr4v/gmH/wUi0H9uP4brp10ljofxE8P24/tbRoflimhUqgvLUHrAxZQy5JhdgrZVo3k+qM5r+ePT/gD8b/2Lf2vNF03TPDet2/xA0PVYjpL2VvJNaaqSwCmKUALLbyqSrZxhWdXCMrKv9DUZyg6fgciv0bgvPMVj8POjjoONWk1Ftq1/wDg6ar0fWx+p+H/ABFjcywtShmNNxrUWoybVubf/wAmVveXo+tk6iiivsj78K/Kv/g4c+DXinVvH3g/xxZ6HqF54V0zRZLG/wBRt4TLDp8v2gsPOK/6tWEihWbCk5Gc8V+qlR3lnFqFrJBcRxzQzIY5I3UMsikYKkHggjjBrjx+DWJouk3bz9D53irh6nneW1MuqTcOazTWtmndadV329T+X/qK/UD/AIJ4/wDBaX4e/BX9l3RPBPxAsdesdW8H2xs7W40+0F1BqluGYxYAYGOVVIRg/wAp2hg43FE9G/be/wCCFPhH4vteeIfhTJZeBPEbIXbSPL26LfPn+FVBNqSOP3YMfA/dgksfyp+OP7P3jT9mrxu3h3x14d1Dw7qwXzI47kBo7mPOPMilUmOVM8bkZgDkHBBFfHOni8tqc6W+l90z+aZZfxHwLjJYqnFShJcvNbmg1e6vs4u60Tt1tdHS/tsftNy/tgftM+JfHzae2lWurPHFZWbMGe3toY1ijDkcFyE3NgkBnIBwBXlVANFeVObnJzlu9X8z81x2MrYvETxVd3nNuTfm3dnsP7EP7Z/iX9h340Q+KdCX7dp10gtta0iSTy4dWtskhS2DskQnckgBKtkYKM6N+nE//BwL8GE+Hr6lDpfjSTXRCSmitYxq7S44Uz7zEE3fxZJxzsJ+WvxmoRDNKkaqXkkYIqgZZieAAO5J7V3YXNMRhoOFN6efT0/qx9dw34hZzkuHeEwck4PZSV+VvrHt6aq+ttWb3xW+IFx8Wfip4o8WXkMdrd+KdXvNYnhjbckMlzO8zIpwMqrOQCR0FafwE+Dfin48fFLSvD/g/Q9Q17VpriJzFaxFxBH5igyyt92KIEjMjkKM8mvrv9iT/ghv42+ObWuu/Exr74f+F5Ak0VkUU6xqKHBI2NkWoxnmVS4P/LPHNfq98Av2avA/7MPgpPD/AIH8O6foFgAvnNBHm4vWXIEk8py8z8n5nJIHAwABXZgclrYh+0q+7Hz3fy/V/ifWcK+FeZ5rV+v5o3RpyfNqvfld30X2U+7+SaO660UUV9wf1QFFFFABRRRQAUUUUABGaMUUUAFFFFABQRmiigAxRRRQAUUUUAFFFFABRRRQAVyHxr+Ang/9ovwRP4d8aeH9P8QaTPz5VynzQt/fjkXDxuOzoysPWuvoqZRUlyyV0Z1qNOrB06sVKL0aaumvNM/Hv9tv/ghL4q+E4uvEHwlnvPGvh+NPMk0e4KnWbXnkR7VVLlQOcALJgABZDzXwHd2k2n3k1vcQzW9zbu0U0MqFJInU4ZWU8qwPBB5Br+oAjIrxz46f8E//AIP/ALSfjqx8TeNPA+l6xrlgV/0vzJbdrpVxtS4ETqLhBgALKGAGR0JB+bxvDsZPmwzt5Pb5b/d+R+JcU+DGGxU/b5NNUpN6xlfk9U1dr01Xax+J37H/APwTx+Jv7a2phvCukCy8PRybLnxBqYaDToiDhlRsEzSD+5GGwcbigINfr1+xT/wSo+Gf7GUcOp29q3izxkqgtr2qwo0lu2OfssXK265zyN0mDgyMAK+kNF0Wz8N6Ra6fp9pbWNhYxLBb21vEsUNvGoAVERQAqgAAAAAAVaruwOTUcP70vel3fT0X9M+t4S8NcryRKtJe1rfzyWz/ALq1S9dX5hjFFFFewfogUUUUAFFFFABRRRQAUUUUAFFFFABRRRQAUUUUAFFFFABRRRQAUUUUAFFFFABRRRQAUUUUAFFFFABRRRQAUUUUAFFFFABRRRQAUUUUAFFFFABRRRQAUUUUAFFFFABRRRQAUUUUAf/Z;" vertex="1" parent="fBx816WQmak9tDgQq-sm-2">
          <mxGeometry x="71.33000000000001" y="380" width="49.48" height="20" as="geometry" />
        </mxCell>
        <mxCell id="fBx816WQmak9tDgQq-sm-18" value="DB" style="outlineConnect=0;dashed=0;verticalLabelPosition=bottom;verticalAlign=top;align=center;html=1;shape=mxgraph.aws3.mysql_db_instance;fillColor=#2E73B8;gradientColor=none;" vertex="1" parent="fBx816WQmak9tDgQq-sm-2">
          <mxGeometry x="30" y="349.99999999999994" width="30" height="32.25" as="geometry" />
        </mxCell>
        <mxCell id="fBx816WQmak9tDgQq-sm-19" value="" style="shape=image;verticalLabelPosition=bottom;labelBackgroundColor=#ffffff;verticalAlign=top;aspect=fixed;imageAspect=0;image=data:image/png,iVBORw0KGgoAAAANSUhEUgAAAHoAAAAwCAYAAADemm7uAAAABGdBTUEAANjr9RwUqgAAACBjSFJNAACHDwAAjA0AAPmTAACE5QAAe4IAAOt1AAA/tAAAIlh1a16cAAAD8GlDQ1BJQ0MgUHJvZmlsZQAASMeNVd1v21QUP4lvXKQWP6Cxjg4Vi69VU1u5GxqtxgZJk6XpQhq5zdgqpMl1bhpT1za2021Vn/YCbwz4A4CyBx6QeEIaDMT2su0BtElTQRXVJKQ9dNpAaJP2gqpwrq9Tu13GuJGvfznndz7v0TVAx1ea45hJGWDe8l01n5GPn5iWO1YhCc9BJ/RAp6Z7TrpcLgIuxoVH1sNfIcHeNwfa6/9zdVappwMknkJsVz19HvFpgJSpO64PIN5G+fAp30Hc8TziHS4miFhheJbjLMMzHB8POFPqKGKWi6TXtSriJcT9MzH5bAzzHIK1I08t6hq6zHpRdu2aYdJYuk9Q/881bzZa8Xrx6fLmJo/iu4/VXnfH1BB/rmu5ScQvI77m+BkmfxXxvcZcJY14L0DymZp7pML5yTcW61PvIN6JuGr4halQvmjNlCa4bXJ5zj6qhpxrujeKPYMXEd+q00KR5yNAlWZzrF+Ie+uNsdC/MO4tTOZafhbroyXuR3Df08bLiHsQf+ja6gTPWVimZl7l/oUrjl8OcxDWLbNU5D6JRL2gxkDu16fGuC054OMhclsyXTOOFEL+kmMGs4i5kfNuQ62EnBuam8tzP+Q+tSqhz9SuqpZlvR1EfBiOJTSgYMMM7jpYsAEyqJCHDL4dcFFTAwNMlFDUUpQYiadhDmXteeWAw3HEmA2s15k1RmnP4RHuhBybdBOF7MfnICmSQ2SYjIBM3iRvkcMki9IRcnDTthyLz2Ld2fTzPjTQK+Mdg8y5nkZfFO+se9LQr3/09xZr+5GcaSufeAfAww60mAPx+q8u/bAr8rFCLrx7s+vqEkw8qb+p26n11Aruq6m1iJH6PbWGv1VIY25mkNE8PkaQhxfLIF7DZXx80HD/A3l2jLclYs061xNpWCfoB6WHJTjbH0mV35Q/lRXlC+W8cndbl9t2SfhU+Fb4UfhO+F74GWThknBZ+Em4InwjXIyd1ePnY/Psg3pb1TJNu15TMKWMtFt6ScpKL0ivSMXIn9QtDUlj0h7U7N48t3i8eC0GnMC91dX2sTivgloDTgUVeEGHLTizbf5Da9JLhkhh29QOs1luMcScmBXTIIt7xRFxSBxnuJWfuAd1I7jntkyd/pgKaIwVr3MgmDo2q8x6IdB5QH162mcX7ajtnHGN2bov71OU1+U0fqqoXLD0wX5ZM005UHmySz3qLtDqILDvIL+iH6jB9y2x83ok898GOPQX3lk3Itl0A+BrD6D7tUjWh3fis58BXDigN9yF8M5PJH4B8Gr79/F/XRm8m241mw/wvur4BGDj42bzn+Vmc+NL9L8GcMn8F1kAcXhLu7iPAAAACXBIWXMAABYlAAAWJQFJUiTwAAAlZklEQVR4Xs18B5wUVfb16eqeDhOYGYZhhjiASGZXELOuiyKGdVUwAK6o6Lr+14DZNbGoawKz6BrXABgwK6J+BlCEFUVRkJxBYHLu6dzV37mv+vXUND0E1/9+3/lRVNUL972659377ntVPQ7TNBPYRzgcDiQS+1x8N0h9wS+VodtP70emfu1zX1lOemWV5TVval86ETCyeG3AjIXg7TsKuUffmGrbv+RxhFa+A4fLiwTVZwYbkXvczcgeeGqqTHjHD6h9+VKKyYMZN1nOBGIJxOrK0e2W+XAV9Uj1T8lc9gkqHvkLnJ48IBJHPJrgYbIuEGc9M8bqzQHEEwaGvPwFfGV9dns+kSOIh8OU42kj31BXSeiC7SFd8P5C6v8nMnTddBmZZO5bOxbJ4W0Lk89u1TE6dATcTsDjgsNNJRX2VOka8bp1MLw+5nEwsJzhcVokJ/MFjQumwZHbQckw5HC7YIbrUHzBI7uRHKnYiMpHLmC7hUi4rHadHgNONw8XeDhg+muRM2gIDlm0vV2SzXgMnx90EBafeEoy1YKUbUO0vfK+Ker/P+h+76n/Ok+4Dax8GZFd36h7DUdeMUAFJ1wGEtS7kVfShsRYYBsS3iwksqg+IwbPoNOsDJFLodGaDUDDZpKVBUiZLCezwsj+zSgef7C1L+REseueU5BV0kMNGIe0yUPqCNGGk2Vqd6B04mT0f/pj1Q/7s4kMOSrnvYOPSwoRa6pH3bffou6771W6xm4WrQ/DaJOlYK+YDl1PX2dCpnRdr708O/R9e2dBprR0qLxkfmDl8zAjtepaw8jrTEXzgoqWszO3i7J8qZOgLzXjfqbT2kmiiRB8Q8dLroKUC3w7A868QrhIlovW6HCacHg9KDrrkdSA0f0rv/d4ODsUUBY9g0ssn2Q72a4QbtAD+ivR65EPUHrJVFVeDaYktIwVF5+Fn/7nAvi6lcDlc8NX2gnLLrlU5Wmk2NSVhg4ajN8OGaqu05W1Nyux52cq2179Cyeej8ceeXSv7en79s77A2kpsPFdRVg8+LOVmIQrt5iWxcFOZTto2UaOZdFSJ9awAQ6PW+UnnAm4CnvAldfd6gP7Hw/UIFL9A4nNpiCxUBIYqUPniS8r2SyYes7q58/nbQiGz0uZ0pa0yfIkW2IDUH6f17YiZ9hIJT/1nKwvMlrWLsfXw0vRvGwJvF27wEnrFw/g9LrQsmk96pYuTbXVxmxfefkVrFyzGitWrcTLs2cnU1shlTIdGvZ78Qj2PIHOt5cTfPrJJ1i+fLm6tufZy+h0+/HLYdUNbXwNzhzOo/EGdU+h1slXpAgWi5W51fAUJmuwqH8j09wMskiiIwzvwHHJHEuq/8cn4cgpgMm6CXqERLwZub+/gRZe2koU0fjZdA6ItbTAXGW9Dk7GBsurARRqgrfPIPR5Zg37l9+mnnp2nn9+6AasOudwZHXIRVZuDsQJiNt3cHCIM/YWFWDNHf+wKhGKaK20yVdcgXPOOgt9evXC1ZOvVmkaUqa6uho/b7dG/4MPPIBHH35EXdsVL6TdeccdmH7fNDQ1NaXS5SwdfmLG45g6ZQo+/ujjVJ7H60Vx52JUVlQw7+947913U3kCuV72/fe49eabMw7A/YWIjtatImv1tGgGVHSt8VBNMpd6z+6kXK6LinN5c5Rita7N5s0k3s1CTHXG4e3FOVcy5PniEUTKv6B10kKFMETh6jYUviHjUmTJswTXfoiWFXM4JRRyemDgxUHhyBJ5TsRbqpA/ehK63fS2Kp9OcrypFmvPHoS6uTPh7d7DmsfF60gsQTbFqqVtl8+D6s8/hRmNqnopi/78089Q21CPBx56GLfccitq6mvxwdy5qpDG7JmzMGTQIDiZ9tADD+Lqa69Bro8uKonL/3oZRp94opI17b77kJ/P0ch0kVFZWams/PrrrsP8+Qtw8iknW5WIbMp48YUXUNqlC55+6imcMWYM7rrTGo1S987b78DBI0Zgzeo1mDhxIg4ZfnAqLxPaSxfoPFdBP+Ums2iZblmKtGxLWa3hLSLJdMs83DkkQ8FSuBHcBDctOstFkrv9zqpDMuTcsuY5OH15VDS1zn8JDoSC0TOSNa22o3Wb4P98CrLyJQ7gYOBgUvM95+N4oAqdL3sRhaffpOrYB4ccDR8+iw1n9YIjHoK7sEC5aUUwrdghTVKUQ9IoS86ewg7Y+ty/lAxDP/jll12GAQf2Q48e3XHxJX9WaVddOVmddZnc3Fw0tfix4qefsLOiHMFgEC2hIKZPu0/l3//A/apzXy76Sg0awTdff63Oky64EMUdixCMhPHV4kWIhCPw+xnUENFYDH1691Z1K6qrcPaZZ+Lxx2eovDDXhFPvuB3Lf1yOt997FybLfPfDMixlZKmhFaEPe5rGbvdcJ/u6jKAFxOgyGXEFtyVzmOfpCJNWIkciuzSZaNU1o+VW4IQgvL3PUmkiVyiJ7pxHa+eyS6wzVo+C461nkJqqDC2+ce7FMPK7qkEmHkNZvhkmSwl0v20JfP2OUXrQdXSft085GTUzp8LTlVbMgSnWKwQbhiY7eUi6SkuwnAtbn3lS1VcWvWLFCqzbuAFvvWO5C8HDDz2Ezdu2YtFXXyVTZExbI2zwkCHq7KXLHTxgIH5Y9qO6z87JwYP3349jjz4Gw37zW5Wm8dXCLzHp4ovUtTxIFpUrA0cQjUZosYeoa8EhhxwKf1Ozuv5iwQJ1vvSSS5TMw5LlFi1apM4CkdfeoZEp3dnjNJiOEOdTF2Kh7SpN4HAXWURTWcih5UkaDzPWwvJh5pGc7I6Mzg9MyYpte11NQU7KgtkC36DzaLV9U/mCuvcnwJHdgQOBZUi0zKlGtIlLqz7ocu1CGNkFqfK6VmD1l9j8l96IVW+Hs5DLPhlkHEhizWK1ek528ixWbThYMxbmEq8CnpJiDLhtipKjiL5m8lX0Ik4ccSgndw4LNwODv7NANueayVdcqQq2hy1btqC4uJO6Hti/P617OiZfdRXuufdelaZHpEGZ0UhEXWdClHOJRowW7pDeE07ZMSDeevcdzP1wHl5/603s2rkLf6UH+k8g+nQVjiDJbq6HZTPDFnk7vTy4TmbXHZ6SZCL5C2xmWbp5R4Rzb3LtbDlvRHe9QWvOpv5i8Bb0QHa/SRZZyedv+PIqVY8jXK2/hWQzVIvsYeeg0/gXVFlNsrJknqtnX4Wqf07iNNMZzuxsTgXCqMzJ1iG3FuFShwM47EekagcKho/AEZ/+G8cu+RFdzzxLyTXq6uow/8svMPnqyXhh5ouYxWBn5qxZmP3KKzh+1PH4YcVy/ERXrTqQfKhLLroY69etx595DoRDnKuvVR1du3493nz7LZx59lk4/oRRqqxej5/IuftxBmICeZAdO3Zg+/ZWK2oPo5JyJPDr3r07ysrK0IVLicbGRpWuITLt1mPHbulK+VZaVmcuXRBHPFap7qWoekpPDpVqkjzLoqV0PLiZBLlIWJRWKNudTGThaPVnMPmYcWreRADeQ5LzMguIrJaVjyPezGhdyWRBB4O/SA3yT34AuUdyAEjhpDB5jljdVuy8+3CEN/wbrmJx86yjyHVybc3n5LVaignJbDERaOTCoRIlY87FUT9VY+jzbyF34FCKtLyXyDSELMEDdNVjOTeOP3eCOk47/TS8NGumyjubo0LDRYsv7FiI/gP64/U5c1SE3KdPH/VAhR3ycdyxv8cIBks59AZC8b33WJY9c/YspS1p1OUwGAv0QIcOXNoQNdU1aLIR52/2wx8MJO+Ad99+B9M5/0vdogIudXh+/733VJ5cy6FGLQeVvrfnpd/Hm1ak0rJKGDXT0hJ0yQkzwnSVzHk7j6RQSV66S0KS45GtJJTr1ILf0uNwLc1ESQ/veoXRcw7jhwa4h97BdPZD6rBAtPxTRHfMo0XmK1cLDpKEEUfR2e/D3eMoEU1YZIi8pkVPoPLJP3JQUH/ZjPhlYJBU5aaFYLlXBMc4Q9TBkYii6+UMVr9tQtmN9zMYzEkRbIejvLw8IdGxz+fbPZMt19fXI9DSgm60pidmzMAVkyfvVk7uteJk+ZObm4fTzzgdq1atwuDBg1W6xtz330eLvwW/P24kSkutQEe8ikSyes5WQR7b7NSpU0q2GY/j7bfeRoTz+UEHHYRBSbnpfdkzLGX6f5qE3KGWu5Re+9f9lfNFLXx97qWiDlAlg9um0lWvgq/vU5wTrakpsOkauvgd8Pa8Da5cKwaJNn6P4NZpMBIMrgqO4XLrstY++zcj/N3lHE2dGHCKR2iAkdML+cdYQZrVd6tPZjSIhjnnIVxfQTKph5gJMxJDIkqLjcbViw6T13HqLlpXA2+PQSgafwtyhlseT2khgy40Lw42lixjdS55m4IuKPj3osWYOfMlPPXMM+pe19kbtMy9lW1P3p7aseelX9sh6Tqlcdlo5PafAVdOf3UfqXmXx2x4ulzOAGqkSguVP4pY80LkHPhmSmbL+nNp+RyQB75I+SKTaRuFfFqW4aO7fCo1eCSSbvl2PL1MLmjAJLkWRtfT4BvwP0qWva+hTR+hecE/6Jo7MDI3EItTCkkFCRayzQjJ9jchxpWMb9gf0HHMjXB37qXqqmdKysqoJ6Ztn/U8Z4t9fE2ZLkArUjegkX6v0V56Juiyv4YsO6SeGQ+gZdV4EjoM3rI7VHrCDCKwYQKyis6Eu9NElRapmUlr/Rg5B9AtE2a0jpZ7MbI6ng130bkqLR7ciPC2W1nfhK//i7REzsGEaMr/4yQKjnPNy7sgLXDgbXB2OqINMYLGBdfSvf9It0zXLuQyEI3J68kYS4ajMJs5/0aiyD3ifBScdA3ryYSYQf882xmqmz8PO158GpWffcqpprh1w0Q33B5EmP3QsF/viYD20u3Qfdhb2X2RlQlSy3Bmc74sJUkrqcx6ywJpjUbOQCp0iyoncLgYC7isqUSQiG5h2TgHSHInjIjWzqaFx+DufhXlkmRmyBO0bLiFDdFXM0ECN99hsy2Spd9Shs8ZrVuJurmnINa0iW0XJedeOWSNTpcdsnbt8v94G3rcuRyFJ1/HeoaSkf78Ik/aDWxYgW13XYalIwqx7roL0bJ6BbIZC6l1t1WU7dsq76si08vta7328GvJSx+0KTk8y5W37G4GRDES9VrKCrIKTkEislldq9J0owbX0xpmaCNc2Qcqy1P30WpEgz/A2eEIZHU4WrUhzYbKn6GrZdDGAeDwlSL34Fe4Li9M5lvzcWj1o/AvuZaBXh6Xb4yNyIIcJsIcgDVwdeqDonOeRull9Ci/PUP1R+qnnkPJsY54SwNqX52G9Wf2waZLjkXDF3PpcTrBzYDZ6fOk2kwRbUe6otqDbsyOfa2bjl9LjiClkCTayGKekVUMd/FFiDZ9ZCXxcOUew4sGdS2lDUOi5FaiE5H1cOWfnsqP1r/EpXZHeLtcLyJVG9HG+Yg1fkYPEaWyj0POgPutQZPMN8M1CC45D4nahWyvhOXkxQgJ5NQhr0o9Zb9Dxz/NRcEZT8Pd9aBWcq0GlAx1UGTz4jnYfssobL6wLxre+ycHoItTT2fGHT52nmWEWR4i3+nlCkHP0SJAK0iufwnSFZwJ6e3Y66Tftwfdv33pbyZ5unxoxzV0m0fCXXi2uo9U3Q1X4YUcCN2UVcZaFjCPcy0R2nkxvN3+ZRFHYoJbxjD6ngUHB41Ii4e2IPTz9bxywFN6HVx54qrVrcoP73oLkZ9f4ACipXHeTnAuDgf9nMZZvs94ZPebwFJqTKjyVr+FWEm1ENr0NZoWzkTLUg5Qw8tCbg4SlpGgLWQiFtafINHSeY7KOcQ4IZ99tAdjWgGylJk5c6baflz500ps27YNzU1Nap/Z5/WiU3Gx2rzoe+CBGDJkCEYcMgLH/O53qq5gX8j6tSB9joTDqKis5PTmTKZaiHFNU9arbPf+yHOqpBhC2yfAV/aGujXpihPxJlrbsWr+jgdpeXmns2ycbv4xrpKukUqI1jxKgss4XyfdqhlCaNtEXufA1/1BDpQi1ab0TT5UCGy8gUutHSoCT8S4Vg830huUwll2Ptfx9CQiQ/2X7CfraX6jDdsR+O5VRvBvkrQw82ixjMwTJDLBiDzOQ4K4RIjXJJXjB7FI8huzCL1MgDHCgIPaWnRzUzMmjBuHeR9/BJ/bAw/Xti4GBKJAyVcdZ2dYB3EOBtmqlCPKqDBCyZ0KO+LjTz7BwSMO/sVk6zYyIVOepH326ac4YfTo3eYhxrCp8ql6LG+GVtEgrHV4vOULZaGuvJOVsmNNb3N6Hss0zpehHzkvH4Z4eA1zDAY1/SmHz1p1Czwl8gJHieNgOZ9BVCktfrqSqdNjzUto5Q/xPpvyqPlQM2UPh7vbRDhz+6TK8n9VQZMrGzfBlW8iuPw1Bm3lzM1mnovEytqapMr6mmch2QyTaK65IdZMsjmO1EeFsSjb5xFtCqHjSWMt3Yiy3nz9DXTI74DFixejS+cSFBYWqpcUspEhROtdJzm7OB94GMnlMF82WzoVd1J16uvrUFfX9rOcdIiMdGRK07DnabIkzZ7u8XrU/nxpSWnqKGF/ZN9eQ9eRWrH6V2gRu9S1K+f35MDaipV7w93XUrhDPgTokbS0EAySLIg2zeEaVu/jk7tdV9L9H54iWaDSy6chXP4Qo3E3UwJclo1E7vDXuAyb2oZkKav7FdrxBRo+vxI1s49D4McX1eBwytcuXpl3aWyce2X+1XOwvA+wdtvkmgKYrl5qiLCErMPDiPkbuUTsz3Q2Mu+DeTh73DmKrOxsjh5pfT8hdeQFhH4J0R7sZGmkW6kd4j3SIWl7qpMJUt6qB7hLpyJSfS+nori6z8qfROtYp64NzwA1RfGKSuzCirxyD1RnWYO7vMOYR+vi/+HaabTQ0xkEyW6YKkLr34rAlvM5vy9VkXtW8bnIG/w6B8LFFGTtPko5OUQF8cY1aFkxDXUfnIiWZfcj7v8ZDgZqhpdLO+pSXjlqcmWfWwVYcs1LpUL5hi0aojX7YTICjzVyNVC9k3kJ5A4+CF3OvRidTjrD2hkTpZcWd1bWaoe45xa/H+FIBHH5wJgwOHTEwrPo0sXa5dD1amtr8fa77+KUP3CpopT1vw/p+1dfLcSokcerLVMNab+mpgaRuKxnrXsNqSN3sfrnGXxdZGmdLpkTr8q3EuwQrfJkBqgAcaOs65/H4rQUT9IDEJG6f1Hm6+TzIEbo4+ktZFBI2+pkEUOYkTpEKz9AfAdlRIKIml4OQvlOjGVj1DNdr9o8iXAgMs6IyfZnmD6Zc3Q8GOLUE0WiJaDKu4r6wFXSF56u/TglDIC750AO5DKrIRscj8+Ykbjx+htQUFCQTLIgrw0lyPn7Hbfj9yNHoktpFz5+AvV1ddiydStW/LgcXy1ciE85P4rixI2HQiG88NJLmHDuhIxEKwUn0zNdyzkT0mXpcrrO/hKtwHoixYxs4zqXilHZu7fTth5r8F8iVsU8rlGdyTV1rBrhymsZYA3iwJnEYKw0JU4/ktxHa/8PPckHSDAwczi8DJAY/6gP9Jmn5t0orZMkCqm8poWR3CASsmuW3xdZhb3h7NgHWZ15XdKPnqb16x47rLZb+y3P4TjphNGJ7777Tlmmhri4QCCARr/18n9v+Pabb/Dcs8/h2X89h9unTsXU22/fTbHpStNk7Q3pdTLJ3R+idbtyr+RJmv0+ec6EdBmCmP9tklOJrIKLmd6qQ41Yy/eINXzMII8RfUKWRFmWtZpRniVijiirjTK4gqcbnDm9eJTB2aEXvQKJzeuWlNQWqift9Nnez9R1rx49E2KJdrctJI8bPx5PPfN0qmB7SFfKDz/8gGHDhrVbz15+/bp1mD9/PtauWYvqqio1VeQX5KNXr944/IjDMfK445IlWzufDpH3S4jOBCmj82fSM33+2eeIcNoaNuwgXHnV1fD5SBRhyWL0HvmJVjWIdZypASMwI9tJ7Ec85tNoZMpj3CJ73nFaayIXTndPFegZ3p5w8jBIrMO1b9a5R7Dv6U+Xeu6STsUJp0SnthLycAf0PQBLkt9l2RUg0PcpIcnrdCXqfA2d/8D0+3H3XXehsbkJPo9XRfF6oEmduGwmsA9RKmnCuPF48umnVHSv8wX2tvaFaA1J4+BGcbH1nlkgr0kbm+m9KHLDhg0Y/pvf0nNy/enzqXbky5iWcAg33nADpk1vu4TSSMRqaL1iuR+R0CbO37159OFBIrO6W8S6Gdy1g3R5gkw63RvMcAtiNZWIVGyn04ihw+HWa0zHAb16J+Tdb3ogJl9wjDxuJGY88QQtzHolZkcmhQt0usDeUTlv3rxZffclA0mIS9/gSIfU11PI9GnTcMONN6bSRZ4+76tFS1lJE5I7F7WWraqtUe/dZVOoZ1mZypPBZ4e8I5fNoYWLFylZFhi1RDdybl1Ny6UrzjqQZB7AlVBeMr8VqkbqP+rE+mclJdFWk60wowGu92tgNtHrNVUzUq9AtL4KZu0uRElqtGonif0ZaGom0Qm1lg7V1KPX9DnoOPoc69nHjhmT+HLBF2pdnA55uMYmrsN82cqNHnb44RgxYgSOPPqo1EcC6WhVQitEwcuWLcPBBx+cUYl7g8gsr6rEny+6iHGA9fmqJk6wPxYtK4POLCdrbQ1Jkx8tHHv00Zw+TLWisEO3v3r1agwcODDVtpx50YagJI17RSLOICtaz8CrlkFXHZdHtfQINSSURMq5uVoR62jx01uY4vVlWmfUxmWiROPyWLJ5wnNcndmnKNODJqLBCGIsN/j9Teyj6iIcc157LTHxT+e1UVI6JDiTz24lEpddsDBbLaRFjh0zFpdceikHwGHJkm2hFSL1JNjjNLGbFcvOWjPdpli5RPUurh0lgpcvTDWRGrsqK/DMU0+zzb8kUyzsD9F1JLU4jWjpg3itjRs3qnYFikRC+iDPLvnymbEd+vn0NcxGJMwmar6By9smktlAAupJUB0JqiNBvCahsu51yNTNQ84GSZIPDiISkPFelk0QUiU/wjyaaDycfEctSy1ykGC6vK9WJIdjzI9Tjux5RxHcWYnud85C/lF/kK4pqHV0fm6esuj0kbwnSOAkQVwT3WpXLr3kU2GxeP3w6sEJuR49ahSWfrtUbcbYIZ8o5dAz3P/gAzj22GPh5Zy4hlYz7b5p+HDePHTu3LkN2TLg5LtvLVu3tT+uO5NFC4Rs8TRCqkxb8QQVyHSPKwvhWBQLGDTKMlO3bYHPGS+nZW4gGbtIBC00Xst7EssllxmVVQsDNa6R1U5HnGfToO4MGBKckVdFNL2IEBsRooRIIVQic1qyI7mWlvS4kJsk06TFOoRoDgDJl+1P2Qo1m+kpvAXo+8JSa1pI9lcRvY3r4l69e6sP7PeHbA2x2Oq6Wky59VbcySBLK0MUW8VouqSkRO262UkThfbs2RPLllvfhKfj0UcewQ3XXa/Is9cTEm782434e3IJJ3mLSPTx/4Hr1pCgTL5xkw8Z9TdpMuDkA0rxJhr6+YRo6ZrctfawLeSTIpOBWiJaTUXRLYc5AOQIVtLNVqqvTwxxuWLR8qKC3RWLdpD4hFh0lIOJBMpGSozzr8NGtPoCpQ3RcUS2bcUBr26Aq2Pb33qplxqiLHlDJYGSfLgne95CuF3Be4MIlXls1kszcd75E1Mk3HfPvbjrH/9IRc0CXVZiAHGVumw65GP9TZs2tYkfZFDl5eVh09bWr0F+DYuWX41cOGkSHp3xWDIlM0SOBemvWNtanj1w6D3yJDT5exoEGgnxHqFK9ZMcM1DJubqC87Mc5YjX0VPU70AsKAOGA4vWrtw1B4D1ASHrM82UN1b1tSg8/QoUTbgp9by6v23eXglk/Si/q1q+8ifltkTJMr/uC/HiWuWHeDHZUE/ipBNGY+nSpam5TyDWPPQ3Q7Hgyy9timsLaev11+fgwokXqBcsGlJeBom93q9BtPw2rKqmGh2LrFeMdtgV1grqwvpH69qAuP8DWtx6LqV6wZnVnxH4ASS/V8YIXNAqr1XO3hD30yM07ESsntF2LcmvkmM7wlxKhbeug6e4D3o+/FUbl62R8X20xgfvz8WCBQvwJQn5noGIk90RwrI5l2bZdtLsEOW+RoLGjB2r7nv3LFNLJHukLcHXlZMn4+5778mgQAvSF5lSDujdR7l+O4SU1evWol+/fur+1yJafoIk00l7fWoDFfbSvxrW3rdGLLCYS6D36ZpXU+FuHh4Yrp4kngPA00uR7/RxfW206i/Vmrpop232XdqR3D0NCqvru8tou3gm5CH1g5562h/x4MMP4btl36u0VWvX4L7p01DMIEnms0yQgfAFl2saQmr6ABLLt29Y2GEvKx84SCSerniDZeTd+f8zSB+NLHJNd9v8MufhYDIDcGUfBU/pNHjL5sBVMI5lvZxHt7LcIq53X0Zwyx1oXjEBzcvGIbD6JoQ3P414+ScMojYpBuX50w/+pxhUekie0w+B/X87RMZuRGtoAUKKFtS/f39cceWVivDrrr9ebTCkQ5ZPW7ZYH9kJMgV30nDA9kuM9iBzuEA9rA3SG7f8AvJ/GbrdtmeJtK1B7nDLXvSfEK2fjnDtdKbbBh8t3V14DnJ6PQ9P1ym04qHqNWfC4YLD1YEWnUOrpxuuWoDYxqfQ8s01qJ93Auo+HIvGhTfA/+NTdMefI9Zg/ZxX2k4/+J/VFqE4SvKkocoQkqfeR6cqZoC9sD4Ed91zN8liKJ9BeDDQOsLlt1KydLFD3PjqVauSd21hlydLLVlX2yH5EgP0zLBb92tD98U6Uw/Jk8PowPnyHZUn2nEXTYXLdyTXr+MQrrqbgdFOla7hzB4Mb/e/IXfQW/B0HkfrojeI1otrIwF07/LLDFc+DA+nHkcWYnUbEF4/F81f3YeGN85D1WMjUPHsKah96xo0ffkkAmvmc1m+Q9a4LG9vqS3sujROPvEkte+ssSfS9wXyMXuBLXg65NBDVaRsh7j39959X13r9tIPwexZs9V+sx3iYTrk5CI/+but/ybMGCN9CTRplU7fSMRqp6QcpTP7aPi6v0MCKxDaeTmPmxkpW4NZnkZ0LmU9xaciZ8gzyB7yCLIKD2FkWs+B0Uxrj1hlEnx+g1bv9HJ2yIXBNbFDfrpLY4luXwb/4hdR/cKl2HX3cWordF+ZMvr1OxBTpkxRyj1x1AmYNXNmal5t7xCcO34C8nLzUvca8qP2QYMGJu+g3oL5ZRvPProM+RDdxJTbbkumyAO25guqKqvw7HPP7rbJIhH7qaeemrz770JeVMT9ryrlOpwFMPImIrzzwta+Gx54u82gcZ7BtS6tsvwuzsmXIda0iHpKEi4Hyzt9ZfD0vRq+382Fe8BkVu2IRKCa8z7du8THVkFV1pLPWZZxgRn0I3vwCSh7cD3Xyt1SbafzILCnOWjNiWn33Iec3BylRJkX5a8SFOR1wKG0RvnVpARO8ucf5OXH5o2b1C8Z5XulTPvdsrHw/XffYfjB1p+fEMjXK9Ihe+Qt95VcJk1m9P3wo48mUy3IJsVZY89Uv7a0b5lKHbXnvGo1BnIwyb08zH8t6mZ9s2We+sTI4R2uiIv6P6arfQaeLk+ShxLWVcUQC62jVd8JR4KxhLyeNOmwO51Di/6jJYuw2hHjse7joXoE189BaC2nBfm602RkznrqJzrUfYIGUzBmOrIHjbI8SfKZ2uuvzpOzY8ZjjyVu/ttNqZ+wasgWp7hceWUYp7sUSAVRvLje9LddAtkH9+VkY9vP1sd2uhHZPjzu+ON32x2TfNmgaQr41atD2eNev55rUcqWtXN6GxL8ycuV9z6Ym5It+O8tryxSgrvGwVv6qrgmRXak9jFG1Z8jq/hWuHIObdO34LabYQa2wkzkyNqLhcNwl5wGd/fzVRlNmMCum8jOJQj88DIimxerjxKyB41B4SnW3xprv3/tw/Hi8y8kLv/rX5Gf9inR/kLmTtmHXrtmDfoPGNCmM/IA8pcTHn/icZSmkS2QsjKw5CxWn54vkLW4x+1BRU2VutfypeyvRjTX7T3Ldida6qXS5DqyHfEAiS2YxHSVhNCu69UySj4Vlh/hqeJMlyeJVL/N/JkMvDpSUcyQlxrhJmQVHQ/XAX+G4baMzP5MGmbYzzm8Ba48ay8hvW/7CsPtcat59ZcKkCEpLzeE5HlzP0A6yQK5f+zxGbj+uuuV6xXLt0MeTAjOtPsmA0gIk+kjneRfHW2bTqFNe7w23D2TJEu6lefp+gDr5yDa8D6j738o8kWclHEXj0XugH/SoiN0lWES7oHT1RGx6m/QNP9sNC25icuojalnlzr6MDy5imR9/0th9O17oHLbQoAoVF4ayFws87W4br2Oth+yXFJvruhKd1VVoHfv3qioqMApp1qvxdLJ0pC/WrDs+2VqL13mcgn6pB1tzXJIe9KuvNmS/tRUV+Pue+7B+k0blQwpI7C3IX/hSCxXArjUUVWlvlBJh/RdJqI2ZXmwB5wL2w5AjfTn0X21Q0p4ut0Lw9Udpn8p/Ov+xCjd+jtrUtbwdEXu8Nlwym+ygzVQHxNEQpy7HYhWkPBv7kBo++eqfHv6+0+g3l4lr/HtN99ixYrl2LB+A7bSjVWUl6u9awnQdONSvKioSG2eHHHkkep7cL1FKXn2cnakd37jho148803sOTrr9XfQ1FtMF2CPJknhw0fhpNOPgWjTxxtVdgDZNBt37atzeaMtC4DRvpph/RLvlXLyrL+NIV0U87yPlx+YpQe/KX3O/252oBldWn5taUZ2k5rtH61YpcTr/2GyzAGV55SOHN7MIhr3Q/PpLc9trkHtNYF/i/TEOjmwMnX/wAAAABJRU5ErkJggg==;" vertex="1" parent="fBx816WQmak9tDgQq-sm-2">
          <mxGeometry x="74.59" y="340" width="50.83" height="20" as="geometry" />
        </mxCell>
        <mxCell id="fBx816WQmak9tDgQq-sm-3" value="Code Check / Stage Deploy" style="swimlane;startSize=20;" vertex="1" parent="fBx816WQmak9tDgQq-sm-1">
          <mxGeometry x="200" y="20" width="180" height="460" as="geometry" />
        </mxCell>
        <mxCell id="fBx816WQmak9tDgQq-sm-4" value="Live Deploy" style="swimlane;startSize=20;" vertex="1" parent="fBx816WQmak9tDgQq-sm-1">
          <mxGeometry x="380" y="20" width="240" height="460" as="geometry" />
        </mxCell>
      </root>
    </mxGraphModel>
  </diagram>
</mxfile>
